<?xml version="1.0" encoding="utf-8"?>
<!-- Generator: Adobe Illustrator 27.0.0, SVG Export Plug-In . SVG Version: 6.00 Build 0)  -->
<svg version="1.1" id="Layer_1" xmlns="http://www.w3.org/2000/svg" xmlns:xlink="http://www.w3.org/1999/xlink" x="0px" y="0px"
	 viewBox="0 0 160 47" style="enable-background:new 0 0 160 47;" xml:space="preserve">
<style type="text/css">
	.st0{fill:#0F5C4D;}
	.st1{fill:none;}
</style>
<g>
	<g>
		<path class="st0" d="M12.6,19.1v15.2c0,1.3,0.3,2.1,0.8,2.6c0.5,0.5,1.5,0.8,2.8,0.8h3.2v3.6h-3.9c-2.4,0-4.2-0.6-5.4-1.7
			s-1.8-2.9-1.8-5.4V19.1H5v-3.5h3.4V9h4.3v6.5h6.8v3.5H12.6z"/>
		<path class="st0" d="M39.2,16.2v25.2h-4.3V16.2H39.2z"/>
		<path class="st0" d="M62.2,19.1v15.2c0,1.3,0.3,2.1,0.8,2.6c0.5,0.5,1.5,0.8,2.8,0.8h3.2v3.6H65c-2.4,0-4.2-0.6-5.4-1.7
			s-1.8-2.9-1.8-5.4V19.1h-3.4v-3.5h3.4V9h4.3v6.5h6.8v3.5H62.2z"/>
		<path class="st0" d="M89.7,19.1v15.2c0,1.3,0.3,2.1,0.8,2.6c0.5,0.5,1.5,0.8,2.8,0.8h3.2v3.6h-3.9c-2.4,0-4.2-0.6-5.4-1.7
			c-1.2-1.1-1.8-2.9-1.8-5.4V19.1h-3.4v-3.5h3.4V9h4.3v6.5h6.8v3.5H89.7z"/>
		<path class="st0" d="M116.4,5.5v35.9h-4.3V5.5C112.1,5.5,116.4,5.5,116.4,5.5z"/>
	</g>
	<g>
		<path class="st0" d="M155.9,30.1h-20.7c0.1,2.5,1,4.5,2.6,6c1.6,1.4,3.5,2.1,5.8,2.1c1.8,0,3.4-0.4,4.6-1.3c1.2-0.8,2.1-2,2.6-3.5
			h4.6c-0.7,2.5-2.1,4.5-4.2,6.1s-4.7,2.4-7.7,2.4c-2.5,0-4.7-0.6-6.6-1.7s-3.4-2.7-4.6-4.7c-1.1-2-1.7-4.4-1.7-7.1s0.5-5,1.6-7
			c1.1-2,2.6-3.6,4.5-4.7c1.9-1.1,4.2-1.7,6.7-1.7c2.5,0,4.6,0.5,6.5,1.6c1.9,1.1,3.4,2.5,4.3,4.4c1,1.9,1.5,4,1.5,6.4
			C156,28.3,156,29.2,155.9,30.1z M150.5,22.4c-0.7-1.2-1.7-2.1-2.9-2.7c-1.2-0.6-2.6-0.9-4.2-0.9c-2.2,0-4,0.7-5.6,2.1
			c-1.5,1.4-2.4,3.3-2.6,5.8h16.3C151.6,25,151.2,23.5,150.5,22.4z"/>
	</g>
	<polygon class="st0" points="37.1,12.8 41.3,5.5 32.9,5.5 	"/>
	<line class="st1" x1="127.4" y1="5.5" x2="12.1" y2="5.5"/>
</g>
</svg>
