<?xml version="1.0" encoding="utf-8"?>
<!-- Generator: Adobe Illustrator 27.0.0, SVG Export Plug-In . SVG Version: 6.00 Build 0)  -->
<svg version="1.1" id="Layer_1" xmlns="http://www.w3.org/2000/svg" xmlns:xlink="http://www.w3.org/1999/xlink" x="0px" y="0px"
	 viewBox="0 0 365.9 109.6" style="enable-background:new 0 0 365.9 109.6;" xml:space="preserve">
<style type="text/css">
	.st0{fill:#0F5C4D;}
	.st1{fill:none;}
</style>
<g>
	<g>
		<path class="st0" d="M41.2,45v32.3c0,2.7,0.6,4.5,1.7,5.6c1.1,1.1,3.1,1.6,5.9,1.6h6.7v7.7h-8.2c-5.1,0-8.9-1.2-11.4-3.5
			c-2.5-2.3-3.8-6.2-3.8-11.5V45H25v-7.5h7.1V23.7h9.1v13.8h14.3V45H41.2z"/>
		<path class="st0" d="M97.6,38.9v53.4h-9.1V38.9H97.6z"/>
		<path class="st0" d="M146.2,45v32.3c0,2.7,0.6,4.5,1.7,5.6c1.1,1.1,3.1,1.6,5.9,1.6h6.7v7.7h-8.2c-5.1,0-8.9-1.2-11.4-3.5
			c-2.5-2.3-3.8-6.2-3.8-11.5V45H130v-7.5h7.1V23.7h9.1v13.8h14.3V45H146.2z"/>
		<path class="st0" d="M204.6,45v32.3c0,2.7,0.6,4.5,1.7,5.6c1.1,1.1,3.1,1.6,5.9,1.6h6.7v7.7h-8.2c-5.1,0-8.9-1.2-11.4-3.5
			c-2.5-2.3-3.8-6.2-3.8-11.5V45h-7.1v-7.5h7.1V23.7h9.1v13.8h14.3V45H204.6z"/>
		<path class="st0" d="M261,16.3v76h-9.1v-76H261z"/>
	</g>
	<g>
		<path class="st0" d="M344.7,68.3h-43.8c0.3,5.4,2.2,9.6,5.5,12.7c3.4,3,7.5,4.5,12.2,4.5c3.9,0,7.2-0.9,9.8-2.8
			c2.6-1.8,4.5-4.3,5.5-7.4h9.8c-1.5,5.3-4.4,9.6-8.8,12.9c-4.4,3.3-9.9,5-16.4,5c-5.2,0-9.9-1.2-14-3.5c-4.1-2.3-7.3-5.7-9.7-10
			c-2.3-4.3-3.5-9.3-3.5-15c0-5.7,1.1-10.6,3.4-14.9c2.3-4.3,5.5-7.6,9.5-9.9c4.1-2.3,8.8-3.5,14.2-3.5c5.2,0,9.8,1.1,13.8,3.4
			c4,2.3,7.1,5.4,9.2,9.3c2.2,4,3.2,8.5,3.2,13.5C345,64.6,344.9,66.4,344.7,68.3z M333.3,52c-1.5-2.5-3.6-4.4-6.2-5.7
			c-2.6-1.3-5.5-2-8.8-2c-4.6,0-8.5,1.5-11.8,4.4c-3.2,2.9-5.1,7-5.5,12.2h34.6C335.6,57.5,334.8,54.5,333.3,52z"/>
	</g>
	<polygon class="st0" points="93,31.8 101.9,16.3 84.1,16.3 	"/>
	<line class="st1" x1="284.4" y1="16.3" x2="40.2" y2="16.3"/>
</g>
</svg>
