<?xml version="1.0" encoding="utf-8"?>
<!-- Generator: Adobe Illustrator 27.0.0, SVG Export Plug-In . SVG Version: 6.00 Build 0)  -->
<svg version="1.1" id="Layer_1" xmlns="http://www.w3.org/2000/svg" xmlns:xlink="http://www.w3.org/1999/xlink" x="0px" y="0px"
	 viewBox="0 0 80 26.5" style="enable-background:new 0 0 80 26.5;" xml:space="preserve">
<style type="text/css">
	.st0{fill:#0F5C4D;}
	.st1{fill:none;}
</style>
<g>
	<g>
		<path class="st0" d="M8.6,11.9v7.2c0,0.6,0.1,1,0.4,1.2c0.2,0.2,0.7,0.4,1.3,0.4h1.5v1.7H9.9c-1.1,0-2-0.3-2.5-0.8
			s-0.8-1.4-0.8-2.6v-7.2H5v-1.7h1.6V7.2h2v3.1h3.2v1.7H8.6z"/>
		<path class="st0" d="M21.1,10.6v11.9h-2V10.6H21.1z"/>
		<path class="st0" d="M32,11.9v7.2c0,0.6,0.1,1,0.4,1.2s0.7,0.4,1.3,0.4h1.5v1.7h-1.8c-1.1,0-2-0.3-2.5-0.8s-0.8-1.4-0.8-2.6v-7.2
			h-1.6v-1.7h1.6V7.2h2v3.1h3.2v1.7H32z"/>
		<path class="st0" d="M45,11.9v7.2c0,0.6,0.1,1,0.4,1.2c0.2,0.2,0.7,0.4,1.3,0.4h1.5v1.7h-1.8c-1.1,0-2-0.3-2.5-0.8
			c-0.6-0.5-0.8-1.4-0.8-2.6v-7.2h-1.6v-1.7h1.6V7.2h2v3.1h3.2v1.7H45z"/>
		<path class="st0" d="M57.5,5.5v16.9h-2V5.5C55.5,5.5,57.5,5.5,57.5,5.5z"/>
	</g>
	<g>
		<path class="st0" d="M76.2,17.1h-9.8c0.1,1.2,0.5,2.1,1.2,2.8c0.8,0.7,1.7,1,2.7,1c0.9,0,1.6-0.2,2.2-0.6c0.6-0.4,1-1,1.2-1.6H76
			c-0.3,1.2-1,2.1-2,2.9c-1,0.7-2.2,1.1-3.7,1.1c-1.2,0-2.2-0.3-3.1-0.8c-0.9-0.5-1.6-1.3-2.2-2.2c-0.5-1-0.8-2.1-0.8-3.3
			s0.2-2.4,0.8-3.3s1.2-1.7,2.1-2.2c0.9-0.5,2-0.8,3.2-0.8c1.2,0,2.2,0.2,3.1,0.8c0.9,0.5,1.6,1.2,2,2.1c0.5,0.9,0.7,1.9,0.7,3
			C76.3,16.3,76.2,16.7,76.2,17.1z M73.6,13.5c-0.3-0.6-0.8-1-1.4-1.3c-0.6-0.3-1.2-0.4-2-0.4c-1,0-1.9,0.3-2.6,1
			c-0.7,0.6-1.1,1.6-1.2,2.7h7.7C74.2,14.7,74,14,73.6,13.5z"/>
	</g>
	<polygon class="st0" points="20.1,9 22.1,5.5 18.1,5.5 	"/>
	<line class="st1" x1="62.8" y1="5.5" x2="8.3" y2="5.5"/>
</g>
</svg>
